<?xml version="1.0" standalone="no"?>
<!DOCTYPE svg PUBLIC "-//W3C//DTD SVG 20010904//EN"
 "http://www.w3.org/TR/2001/REC-SVG-20010904/DTD/svg10.dtd">
<svg version="1.0" xmlns="http://www.w3.org/2000/svg"
 width="406.000000pt" height="406.000000pt" viewBox="0 0 406.000000 406.000000"
 preserveAspectRatio="xMidYMid meet">
<metadata>
Created by potrace 1.11, written by Peter Selinger 2001-2013
</metadata>
<g transform="translate(0.000000,406.000000) scale(0.100000,-0.100000)"
fill="#000000" stroke="none">
<path d="M1783 2816 c-75 -19 -203 -110 -203 -145 0 -6 -4 -11 -9 -11 -30 0
-134 -256 -147 -360 -2 -14 -8 -59 -14 -100 -8 -46 -10 -131 -6 -220 3 -80 6
-156 6 -168 0 -29 36 -174 54 -222 8 -19 14 -39 14 -43 1 -4 18 -42 39 -84 60
-120 176 -222 252 -223 28 0 18 -15 -14 -22 -11 -3 35 -6 103 -6 80 -1 121 1
117 8 -3 5 2 10 12 11 85 3 193 80 249 177 15 26 32 50 38 54 6 4 7 8 2 8 -5
0 -4 6 2 13 10 12 39 85 47 119 2 9 8 26 14 37 6 11 11 32 11 46 0 14 4 35 10
45 16 29 23 123 24 280 0 303 -42 463 -175 661 -33 48 -120 118 -172 137 -57
20 -190 25 -254 8z m133 -96 c60 -22 59 -13 59 -707 l0 -632 -30 -31 c-38 -40
-66 -38 -104 5 l-31 36 0 625 c0 674 -1 661 52 698 12 9 23 16 24 16 0 0 14
-5 30 -10z"/>
<path d="M399 2776 c-24 -25 -66 -70 -94 -101 -53 -59 -102 -95 -230 -169 -44
-26 -70 -44 -58 -41 18 5 21 3 18 -15 -2 -12 -2 -35 2 -51 5 -25 10 -29 40
-29 18 0 49 6 67 14 18 8 38 11 45 7 8 -5 11 -139 9 -502 l-3 -494 -48 -23
-48 -23 3 -50 3 -49 253 -4 c139 -2 255 0 258 5 2 4 6 26 9 49 3 35 0 43 -23
58 -15 9 -33 22 -39 29 -10 9 -13 171 -15 720 l-3 708 -51 3 c-49 3 -53 1 -95
-42z"/>
<path d="M2484 2788 c-4 -13 -8 -40 -9 -61 -2 -33 3 -43 32 -65 l33 -27 0
-607 c0 -333 -3 -613 -6 -622 -3 -9 -21 -25 -39 -36 -19 -12 -35 -31 -37 -43
-4 -22 17 -76 30 -78 4 -1 121 -2 260 -3 l253 -2 -3 54 c-3 54 -4 55 -50 80
l-48 26 0 302 c0 252 2 304 15 314 8 6 19 9 25 5 5 -3 20 -8 32 -10 27 -6 38
-22 38 -57 0 -15 5 -30 10 -33 6 -4 8 -10 5 -15 -3 -5 2 -18 12 -30 13 -15 29
-20 65 -20 26 0 49 4 53 10 7 12 8 407 1 419 -6 9 -81 13 -108 5 -18 -5 -38
-53 -38 -89 0 -48 -80 -97 -101 -63 -12 18 -11 529 0 547 11 17 67 17 88 -1 9
-7 18 -11 21 -8 7 7 62 -102 58 -115 -4 -12 21 -63 42 -87 22 -26 98 -25 105
1 5 21 -19 161 -35 201 -6 14 -11 41 -12 61 -3 71 9 69 -357 69 l-328 0 -7
-22z"/>
<path d="M3302 2798 c-7 -7 -12 -36 -12 -65 0 -49 3 -55 30 -71 l30 -17 0
-618 0 -618 -41 -40 c-31 -30 -40 -46 -37 -67 6 -52 8 -53 280 -54 l253 -2 5
29 c9 48 0 75 -31 90 -16 9 -38 25 -49 37 -19 21 -20 34 -20 314 0 325 0 323
61 303 46 -16 53 -24 55 -63 1 -18 9 -48 18 -65 15 -29 20 -31 71 -31 45 0 55
3 56 18 7 88 2 405 -6 410 -5 3 -29 8 -53 10 -56 4 -77 -14 -86 -75 -7 -53
-38 -93 -72 -93 -43 0 -44 13 -42 296 l3 269 25 3 c49 7 99 -16 119 -56 10
-20 20 -41 21 -47 1 -5 6 -20 11 -33 5 -13 9 -29 9 -36 0 -7 12 -25 26 -40 37
-36 101 -37 110 -2 3 14 3 30 -1 36 -4 6 -8 27 -11 48 -2 20 -8 53 -13 72 -6
19 -13 53 -17 75 -9 47 -8 44 -18 73 l-7 22 -328 0 c-241 0 -330 -3 -339 -12z"/>
<path d="M6 2402 c-3 -5 1 -9 9 -9 8 0 12 4 9 9 -3 4 -7 8 -9 8 -2 0 -6 -4 -9
-8z"/>
<path d="M1230 2103 c-8 -3 -17 -9 -20 -13 -3 -4 -20 -15 -39 -25 -27 -14 -59
-17 -170 -16 l-137 2 -19 -53 c-11 -29 -20 -55 -20 -58 -1 -3 -6 -23 -13 -45
-6 -22 -13 -53 -16 -70 -3 -16 -10 -48 -15 -70 -11 -45 -8 -50 51 -59 33 -5
44 -2 70 19 16 14 40 28 54 31 26 7 175 0 211 -9 28 -7 78 46 88 95 4 18 10
38 14 43 3 6 6 17 6 25 0 8 6 25 13 37 7 12 12 34 12 48 0 14 5 35 11 46 11
21 3 63 -11 54 -5 -3 -10 -1 -12 4 -4 12 -40 20 -58 14z"/>
<path d="M3465 1229 c-4 -5 -4 -13 -1 -16 3 -4 6 0 6 8 0 11 2 11 10 -1 6 -9
10 -10 10 -3 0 17 -17 25 -25 12z"/>
<path d="M116 1222 c-3 -5 1 -9 9 -9 8 0 12 4 9 9 -3 4 -7 8 -9 8 -2 0 -6 -4
-9 -8z"/>
<path d="M150 1221 c0 -3 32 -7 70 -7 39 0 70 2 70 6 0 3 -31 7 -70 7 -38 1
-70 -2 -70 -6z"/>
<path d="M300 1222 c0 -5 7 -9 15 -9 8 0 15 4 15 9 0 4 -7 8 -15 8 -8 0 -15
-4 -15 -8z"/>
<path d="M340 1219 c0 -5 5 -7 10 -4 6 3 10 8 10 11 0 2 -4 4 -10 4 -5 0 -10
-5 -10 -11z"/>
<path d="M370 1221 c0 -3 18 -7 40 -7 22 -1 40 2 40 5 0 3 -18 7 -40 7 -22 1
-40 -2 -40 -5z"/>
<path d="M494 1219 c-4 -7 92 -6 100 1 2 3 -18 5 -46 5 -27 0 -52 -3 -54 -6z"/>
<path d="M2500 1220 c0 -4 7 -7 15 -6 23 3 26 12 5 13 -11 1 -20 -2 -20 -7z"/>
<path d="M2550 1221 c0 -3 14 -7 30 -7 17 -1 30 1 30 5 0 3 -13 7 -30 7 -16 1
-30 -1 -30 -5z"/>
<path d="M2660 1219 c0 -5 5 -7 10 -4 6 3 10 8 10 11 0 2 -4 4 -10 4 -5 0 -10
-5 -10 -11z"/>
<path d="M2690 1220 c0 -4 18 -6 40 -6 22 0 40 3 40 6 0 4 -18 6 -40 6 -22 0
-40 -3 -40 -6z"/>
<path d="M2786 1221 c-2 -3 20 -6 50 -7 30 0 54 2 54 5 0 8 -100 9 -104 2z"/>
<path d="M2936 1221 c-3 -4 7 -8 21 -9 15 -1 23 1 19 5 -9 10 -35 13 -40 4z"/>
<path d="M3300 1222 c0 -5 7 -9 15 -9 8 0 15 4 15 9 0 4 -7 8 -15 8 -8 0 -15
-4 -15 -8z"/>
<path d="M3340 1222 c0 -5 7 -9 15 -9 8 0 15 4 15 9 0 4 -7 8 -15 8 -8 0 -15
-4 -15 -8z"/>
<path d="M3380 1220 c0 -3 16 -6 35 -6 19 0 35 3 35 6 0 4 -16 7 -35 7 -19 0
-35 -3 -35 -7z"/>
<path d="M3500 1223 c0 -4 16 -9 35 -9 46 -2 46 11 0 14 -19 2 -35 -1 -35 -5z"/>
<path d="M3580 1222 c0 -5 7 -9 15 -9 8 0 15 4 15 9 0 4 -7 8 -15 8 -8 0 -15
-4 -15 -8z"/>
<path d="M3620 1221 c0 -4 43 -6 95 -7 52 0 92 2 89 5 -7 7 -184 9 -184 2z"/>
</g>
</svg>
